<svg id="Layer_1" enable-background="new 0 0 512 512" height="512" viewBox="0 0 512 512" width="512" xmlns="http://www.w3.org/2000/svg"><g><path clip-rule="evenodd" d="m184.424 362.769h129.46v89.547h-129.46z" fill="#365e7d" fill-rule="evenodd"/><path clip-rule="evenodd" d="m283.894 369.231h29.99v76.621h-29.99z" fill="#2b4d66" fill-rule="evenodd"/><path clip-rule="evenodd" d="m472.371 23.882c21.799 0 39.629 17.83 39.629 39.629v266.092h-512v-266.092c0-21.799 17.83-39.629 39.629-39.629z" fill="#b1e4f9" fill-rule="evenodd"/><path clip-rule="evenodd" d="m472.371 23.882c21.799 0 39.629 17.83 39.629 39.629v266.092h-29.991v-266.092c0-21.799-17.83-39.629-39.629-39.629z" fill="#90d8f9" fill-rule="evenodd"/><path clip-rule="evenodd" d="m512 298.194v31.408c0 21.798-17.83 39.629-39.629 39.629h-432.742c-21.799 0-39.629-17.831-39.629-39.628v-31.408h512zm-159.791 147.659c11.622 0 21.119 9.525 21.119 21.146 0 11.622-9.496 21.119-21.119 21.119h-206.11c-11.622 0-21.146-9.497-21.146-21.119s9.524-21.146 21.146-21.146z" fill="#407093" fill-rule="evenodd"/><path clip-rule="evenodd" d="m512 298.194v31.408c0 21.798-17.83 39.629-39.629 39.629h-29.991c21.799 0 39.629-17.831 39.629-39.629v-31.408zm-159.791 147.659c11.622 0 21.119 9.525 21.119 21.146 0 11.622-9.496 21.119-21.119 21.119h-30.019c11.622 0 21.146-9.497 21.146-21.119s-9.524-21.146-21.146-21.146z" fill="#365e7d" fill-rule="evenodd"/><path d="m226.406 341.196c-4.139 0-7.483-3.345-7.483-7.483s3.345-7.512 7.483-7.512h45.468c4.167 0 7.512 3.373 7.512 7.512s-3.345 7.483-7.512 7.483z" fill="#ffe07d"/><g clip-rule="evenodd" fill-rule="evenodd"><path d="m64.66 126.668h132.379c3.316 0 6.009 2.692 6.009 6.009v120.899c0 3.288-2.693 5.981-6.009 5.981h-132.379c-3.289 0-5.982-2.693-5.982-5.981v-120.899c0-3.317 2.693-6.009 5.982-6.009z" fill="#ffe07d"/><path d="m167.048 126.668h29.991c3.316 0 6.009 2.692 6.009 6.009v120.899c0 3.288-2.693 5.981-6.009 5.981h-29.991c3.316 0 6.009-2.693 6.009-5.981v-120.899c0-3.317-2.693-6.009-6.009-6.009z" fill="#ffd064"/><path d="m152.393 259.558h-43.059v-71.265c0-3.316 2.721-6.009 6.009-6.009h31.039c3.289 0 6.01 2.692 6.01 6.009v71.265z" fill="#d68756"/><path d="m135.384 62.915 86.231 75.403c2.58 2.239 1.446 3.939-1.474 3.939h-178.556c-3.373 0-3.798-1.928-1.474-3.939l86.231-75.403c3.203-2.806 6.151-2.551 9.042 0z" fill="#fc7070"/><path d="m135.384 62.915 86.231 75.403c2.58 2.239 1.446 3.939-1.474 3.939h-29.991c2.92 0 4.054-1.7 1.474-3.939l-75.771-66.246 10.488-9.157c3.204-2.806 6.152-2.551 9.043 0z" fill="#d15a63"/><path d="m298.265 104.16c12.444 0 22.592-10.148 22.592-22.592s-10.148-22.621-22.592-22.621-22.592 10.177-22.592 22.621 10.148 22.592 22.592 22.592z" fill="#78c2a4"/><path d="m298.265 259.558c12.444 0 22.592-10.148 22.592-22.593 0-12.444-10.148-22.593-22.592-22.593s-22.592 10.148-22.592 22.593c0 12.444 10.148 22.593 22.592 22.593z" fill="#78c2a4"/><path d="m298.265 181.858c12.444 0 22.592-10.147 22.592-22.592s-10.148-22.593-22.592-22.593-22.592 10.148-22.592 22.593 10.148 22.592 22.592 22.592z" fill="#78c2a4"/></g><path d="m356.602 75.219c-4.139 0-7.483-3.374-7.483-7.512 0-4.14 3.345-7.484 7.483-7.484h109.674c4.139 0 7.483 3.345 7.483 7.484 0 4.138-3.345 7.512-7.483 7.512zm0 155.396c-4.139 0-7.483-3.345-7.483-7.512 0-4.139 3.345-7.483 7.483-7.483h109.674c4.139 0 7.483 3.345 7.483 7.483 0 4.167-3.345 7.512-7.483 7.512zm0 27.695c-4.139 0-7.483-3.346-7.483-7.484 0-4.166 3.345-7.512 7.483-7.512h88.215c4.139 0 7.512 3.346 7.512 7.512 0 4.139-3.374 7.484-7.512 7.484zm0-105.393c-4.139 0-7.483-3.373-7.483-7.513 0-4.139 3.345-7.483 7.483-7.483h109.674c4.139 0 7.483 3.345 7.483 7.483 0 4.14-3.345 7.513-7.483 7.513zm0 27.694c-4.139 0-7.483-3.345-7.483-7.512 0-4.139 3.345-7.483 7.483-7.483h88.215c4.139 0 7.512 3.345 7.512 7.483 0 4.167-3.374 7.512-7.512 7.512zm0-77.698c-4.139 0-7.483-3.345-7.483-7.512 0-4.139 3.345-7.483 7.483-7.483h88.215c4.139 0 7.512 3.345 7.512 7.483 0 4.167-3.374 7.512-7.512 7.512z" fill="#4a80aa"/></g></svg>