<?xml version="1.0" encoding="UTF-8"?>
<svg xmlns="http://www.w3.org/2000/svg" xmlns:xlink="http://www.w3.org/1999/xlink" width="18pt" height="18pt" viewBox="0 0 18 18" version="1.1">
<g id="surface1">
<path style=" stroke:none;fill-rule:nonzero;fill:rgb(5.490196%,52.156863%,84.705882%);fill-opacity:1;" d="M 18 9 C 18 13.96875 13.96875 18 9 18 C 4.03125 18 0 13.96875 0 9 C 0 4.03125 4.03125 0 9 0 C 13.96875 0 18 4.03125 18 9 Z M 18 9 "/>
<path style=" stroke:none;fill-rule:nonzero;fill:rgb(4.705882%,38.431373%,72.941176%);fill-opacity:1;" d="M 18 9 C 18 8.925781 18 8.847656 17.996094 8.773438 L 13.234375 4.011719 L 4.246094 14.882812 L 7.183594 17.816406 C 7.769531 17.9375 8.378906 18 9 18 C 13.96875 18 18 13.96875 18 9 Z M 18 9 "/>
<path style=" stroke:none;fill-rule:nonzero;fill:rgb(100%,100%,100%);fill-opacity:1;" d="M 9 2.109375 C 5.871094 2.109375 3.332031 4.648438 3.332031 7.777344 C 3.332031 8.917969 3.667969 9.980469 4.246094 10.867188 L 4.246094 14.882812 L 7.105469 13.121094 C 7.699219 13.332031 8.335938 13.445312 9 13.445312 C 12.128906 13.445312 14.667969 10.90625 14.667969 7.777344 C 14.667969 4.648438 12.128906 2.109375 9 2.109375 Z M 9 2.109375 "/>
<path style=" stroke:none;fill-rule:nonzero;fill:rgb(91.372549%,92.941176%,96.078431%);fill-opacity:1;" d="M 9 2.109375 C 9 2.109375 8.996094 2.109375 8.996094 2.109375 L 8.996094 13.445312 C 8.996094 13.445312 9 13.445312 9 13.445312 C 12.128906 13.445312 14.667969 10.90625 14.667969 7.777344 C 14.667969 4.648438 12.128906 2.109375 9 2.109375 Z M 9 2.109375 "/>
<path style=" stroke:none;fill-rule:nonzero;fill:rgb(38.823529%,41.176471%,47.058824%);fill-opacity:1;" d="M 4.359375 7.941406 C 4.359375 6.933594 5.132812 6.300781 6.078125 6.300781 C 6.789062 6.300781 7.214844 6.675781 7.433594 7.074219 L 6.75 7.429688 C 6.632812 7.21875 6.386719 7.023438 6.078125 7.023438 C 5.558594 7.023438 5.195312 7.425781 5.195312 7.941406 C 5.195312 8.460938 5.558594 8.863281 6.078125 8.863281 C 6.3125 8.863281 6.550781 8.765625 6.664062 8.671875 L 6.664062 8.425781 L 5.949219 8.425781 L 5.949219 7.707031 L 7.484375 7.707031 L 7.484375 8.964844 C 7.140625 9.34375 6.679688 9.585938 6.078125 9.585938 C 5.132812 9.585938 4.359375 8.953125 4.359375 7.941406 Z M 4.359375 7.941406 "/>
<path style=" stroke:none;fill-rule:nonzero;fill:rgb(38.823529%,41.176471%,47.058824%);fill-opacity:1;" d="M 7.800781 7.941406 C 7.800781 6.976562 8.53125 6.300781 9.5 6.300781 C 10.46875 6.300781 11.195312 6.976562 11.195312 7.941406 C 11.195312 8.910156 10.46875 9.585938 9.5 9.585938 C 8.53125 9.585938 7.800781 8.910156 7.800781 7.941406 Z M 10.359375 7.941406 C 10.359375 7.425781 10.023438 7.023438 9.5 7.023438 C 8.972656 7.023438 8.632812 7.425781 8.632812 7.941406 C 8.632812 8.457031 8.972656 8.863281 9.5 8.863281 C 10.023438 8.863281 10.359375 8.457031 10.359375 7.941406 Z M 10.359375 7.941406 "/>
<path style=" stroke:none;fill-rule:nonzero;fill:rgb(25.490196%,28.627451%,32.156863%);fill-opacity:1;" d="M 9.5 6.300781 C 9.324219 6.300781 9.152344 6.324219 8.996094 6.367188 L 8.996094 7.179688 C 9.132812 7.082031 9.300781 7.023438 9.5 7.023438 C 10.023438 7.023438 10.359375 7.425781 10.359375 7.941406 C 10.359375 8.457031 10.023438 8.863281 9.5 8.863281 C 9.300781 8.863281 9.132812 8.804688 8.996094 8.707031 L 8.996094 9.519531 C 9.152344 9.5625 9.324219 9.585938 9.5 9.585938 C 10.46875 9.585938 11.195312 8.910156 11.195312 7.941406 C 11.195312 6.976562 10.46875 6.300781 9.5 6.300781 Z M 9.5 6.300781 "/>
<path style=" stroke:none;fill-rule:nonzero;fill:rgb(25.490196%,28.627451%,32.156863%);fill-opacity:1;" d="M 11.515625 9.136719 C 11.515625 8.894531 11.71875 8.691406 11.960938 8.691406 C 12.203125 8.691406 12.40625 8.894531 12.40625 9.136719 C 12.40625 9.375 12.203125 9.582031 11.960938 9.582031 C 11.71875 9.582031 11.515625 9.375 11.515625 9.136719 Z M 11.636719 8.417969 L 11.523438 6.355469 L 12.398438 6.355469 L 12.289062 8.417969 Z M 11.636719 8.417969 "/>
<path style=" stroke:none;fill-rule:nonzero;fill:rgb(25.490196%,28.627451%,32.156863%);fill-opacity:1;" d="M 12.792969 9.136719 C 12.792969 8.894531 12.992188 8.691406 13.234375 8.691406 C 13.476562 8.691406 13.683594 8.894531 13.683594 9.136719 C 13.683594 9.375 13.476562 9.582031 13.234375 9.582031 C 12.992188 9.582031 12.792969 9.375 12.792969 9.136719 Z M 12.910156 8.417969 L 12.796875 6.355469 L 13.671875 6.355469 L 13.5625 8.417969 Z M 12.910156 8.417969 "/>
</g>
</svg>
